<?xml version="1.0" encoding="UTF-8" standalone="no"?>
<svg width="80px" height="103px" viewBox="0 0 80 103" version="1.1" xmlns="http://www.w3.org/2000/svg" xmlns:xlink="http://www.w3.org/1999/xlink">
    <!-- Generator: Sketch 3.7.2 (28276) - http://www.bohemiancoding.com/sketch -->
    <title>Slice 1</title>
    <desc>Created with Sketch.</desc>
    <defs></defs>
    <g id="Page-1" stroke="none" stroke-width="1" fill="none" fill-rule="evenodd">
        <g id="Pod-v2" transform="translate(-60.000000, -26.000000)">
            <circle id="Oval-1" stroke="#FFFFFF" stroke-width="5" fill="#769F38" cx="100" cy="100" r="100"></circle>
            <path d="M137.139245,32.2514722 L131.722076,30.5758999 C113.017757,24.7587357 112.644918,24.7455249 91.7887042,29.0801416 L88.0104098,29.8610478 C79.0094382,28.414463 69.5864543,27.9153876 61.3546459,33.3553095 C60.4504387,33.9519982 59.9359507,34.9861118 60.0064084,36.0671972 L64.8834025,111.403363 L64.8834025,125.736368 C64.8834025,127.403867 66.2331079,128.750637 67.899873,128.750637 L130.717319,128.750637 C132.384084,128.750637 133.735992,127.403867 133.735992,125.736368 L133.735992,111.413638 L139.260316,35.3552808 C139.361599,33.9542 138.478676,32.6683469 137.139245,32.2514722 L137.139245,32.2514722 Z M128.585974,119.461229 C128.585974,121.406889 126.976456,122.995123 125.005108,122.995123 L74.5544563,122.995123 C72.5875121,122.995123 70.9757921,121.406889 70.9757921,119.461229 L70.9757921,114.670839 C70.9757921,112.726647 72.5875121,111.136945 74.5544563,111.136945 L125.005108,111.136945 C126.976456,111.136945 128.585974,112.726647 128.585974,114.670839 L128.585974,119.461229 L128.585974,119.461229 Z M128.715146,103.082014 C128.597717,104.65924 127.287644,105.874635 125.706749,105.874635 L123.416874,105.874635 C122.416521,105.738857 121.505709,105.206021 121.582038,104.061817 L125.616475,43.3999359 C125.653906,42.8098526 125.293544,42.3291256 124.813551,42.3291256 L123.950444,42.3291256 C123.474121,42.3291256 123.046237,42.8098526 123.011742,43.3999359 L118.944277,104.427316 C118.845196,105.262534 117.905026,105.749132 116.531835,105.824727 C116.35936,105.835002 116.208904,105.850415 116.080465,105.874635 L112.456297,105.874635 C111.6453,105.70216 110.890081,105.171526 110.962741,104.130807 L113.352431,41.0498779 C113.377385,40.4363087 113.003812,39.9394351 112.524553,39.9394351 L111.663648,39.9394351 C111.181453,39.9394351 110.771184,40.4363087 110.748432,41.0498779 L108.33232,104.502911 C108.225899,105.319047 107.305546,105.792434 105.968317,105.874635 L102.33314,105.874635 C101.471501,105.746196 100.744172,105.25813 100.763254,104.25631 L100.758117,42.8641638 C100.758117,42.2711448 100.363994,41.7860141 99.8832668,41.7860141 L99.0260314,41.7860141 C98.5438365,41.7860141 98.1511816,42.2711448 98.1511816,42.8641638 L98.1511816,104.637221 C97.9750373,105.32712 97.27413,105.806379 95.8561687,105.86803 C95.8033254,105.86803 92.5343815,105.874635 92.5343815,105.874635 C91.1597224,105.798306 90.2298275,105.335193 90.0991872,104.533737 L87.6823411,44.0612108 C87.6573874,43.4799347 87.2456502,43.0043452 86.7671249,43.0043452 L85.9069538,43.0043452 C85.4284286,43.0043452 85.054122,43.4799347 85.076874,44.0612108 L87.4841788,104.240163 C87.4695002,105.275011 86.6027236,105.764545 85.7513597,105.872433 C85.7462222,105.873901 81.887929,105.874635 81.887929,105.874635 C80.544829,105.800508 79.6244752,105.355009 79.4615418,104.58658 L75.374995,41.4946422 C75.3360964,40.8906141 74.9104145,40.3922727 74.4304214,40.3922727 L73.5717181,40.3922727 C73.0909911,40.3922727 72.7313632,40.8906141 72.7724635,41.4946422 L76.8377263,104.287135 C76.8002956,105.292625 75.9445281,105.764545 75.105641,105.872433 C75.0997696,105.873901 73.3111714,105.874635 73.3111714,105.874635 C71.7214695,105.874635 70.4040572,104.644561 70.2998385,103.057795 L66.2279704,41.295012 C66.1553109,40.2051194 66.6808079,39.1607307 67.597492,38.5662438 C74.5706029,34.0415382 82.5022321,34.4319913 90.0757013,35.620965 L93.1464828,34.9963869 C110.490821,31.4602909 111.116133,31.4830428 126.679212,36.2352682 L131.190707,37.6055237 C132.544082,38.0150591 133.434345,39.3097194 133.328658,40.7166717 L128.715146,103.082014 Z" id="03_ck_bildmarke_weiss_schutzraum" fill="#FFFFFF"></path>
        </g>
    </g>
</svg>