<?xml version="1.0" encoding="UTF-8" standalone="no"?>
<svg width="81px" height="104px" viewBox="0 0 81 104" version="1.1" xmlns="http://www.w3.org/2000/svg" xmlns:xlink="http://www.w3.org/1999/xlink">
    <!-- Generator: Sketch 3.7.2 (28276) - http://www.bohemiancoding.com/sketch -->
    <title>Slice 1</title>
    <desc>Created with Sketch.</desc>
    <defs></defs>
    <g id="Page-1" stroke="none" stroke-width="1" fill="none" fill-rule="evenodd">
        <g id="Pod-v1" transform="translate(-60.000000, -27.000000)">
            <circle id="Oval-1" stroke="#769F38" stroke-width="5" fill="#FFFFFF" cx="100" cy="100" r="100"></circle>
            <path d="M137.85197,33.3092324 L132.384749,31.6181787 C113.507612,25.7472671 113.131329,25.7339342 92.0824146,30.1086004 L88.2692109,30.8967218 C79.1850751,29.4367714 69.6750279,28.9330848 61.3671621,34.4232686 C60.4546005,35.0254704 59.9353589,36.0691386 60.0064676,37.1602126 L64.9285225,113.192444 L64.9285225,127.657878 C64.9285225,129.340784 66.2906985,130.699997 67.9728635,130.699997 L131.370709,130.699997 C133.052874,130.699997 134.417272,129.340784 134.417272,127.657878 L134.417272,113.202814 L139.992638,36.4417185 C140.094857,35.0276925 139.203776,33.7299588 137.85197,33.3092324 L137.85197,33.3092324 Z M129.219671,121.32476 C129.219671,123.288397 127.595282,124.891305 125.60572,124.891305 L74.6889316,124.891305 C72.7038139,124.891305 71.0772025,123.288397 71.0772025,121.32476 L71.0772025,116.490109 C71.0772025,114.527954 72.7038139,112.923564 74.6889316,112.923564 L125.60572,112.923564 C127.595282,112.923564 129.219671,114.527954 129.219671,116.490109 L129.219671,121.32476 L129.219671,121.32476 Z M129.350037,104.794211 C129.231523,106.386008 127.909345,107.612633 126.313844,107.612633 L124.002811,107.612633 C122.993216,107.475601 122.073988,106.937841 122.151022,105.783066 L126.222736,44.5607019 C126.260512,43.9651666 125.896821,43.4799979 125.412393,43.4799979 L124.541312,43.4799979 C124.060587,43.4799979 123.62875,43.9651666 123.593936,44.5607019 L119.488891,106.151942 C119.388894,106.994877 118.440037,107.485971 117.054159,107.562265 C116.88009,107.572635 116.728244,107.58819 116.598619,107.612633 L112.940965,107.612633 C112.122474,107.438565 111.360278,106.903028 111.433609,105.852693 L113.845379,42.1889306 C113.870563,41.5696924 113.493539,41.068228 113.009852,41.068228 L112.140992,41.068228 C111.654342,41.068228 111.240282,41.5696924 111.21732,42.1889306 L108.778884,106.228236 C108.671481,107.051912 107.742623,107.529673 106.393039,107.612633 L102.724275,107.612633 C101.854675,107.483008 101.120626,106.990432 101.139885,105.979356 L101.1347,44.0199795 C101.1347,43.4214813 100.736935,42.9318683 100.251767,42.9318683 L99.3866109,42.9318683 C98.8999607,42.9318683 98.5036779,43.4214813 98.5036779,44.0199795 L98.5036779,106.363787 C98.3259062,107.06006 97.6185228,107.543747 96.1874603,107.605967 C96.1341288,107.605967 92.8349816,107.612633 92.8349816,107.612633 C91.4476214,107.535599 90.5091347,107.068207 90.3772874,106.259346 L87.938111,45.2280866 C87.9129267,44.6414399 87.4973852,44.1614562 87.0144387,44.1614562 L86.14632,44.1614562 C85.6633735,44.1614562 85.2856085,44.6414399 85.3085707,45.2280866 L87.7381178,105.96306 C87.7233035,107.007469 86.8485184,107.501526 85.9892883,107.610411 C85.9841033,107.611893 82.0901616,107.612633 82.0901616,107.612633 C80.7346521,107.537821 79.8057948,107.088207 79.6413559,106.312678 L75.5170516,42.6378043 C75.4777937,42.0281954 75.0481787,41.5252495 74.5637507,41.5252495 L73.6971135,41.5252495 C73.2119448,41.5252495 72.8489941,42.0281954 72.8904742,42.6378043 L76.9932977,106.010466 C76.9555212,107.025246 76.0918469,107.501526 75.245209,107.610411 C75.2392833,107.611893 73.4341594,107.612633 73.4341594,107.612633 C71.8297695,107.612633 70.5001851,106.371194 70.3950034,104.769767 L66.2855135,42.4363296 C66.2121826,41.336367 66.742535,40.2823288 67.6676887,39.6823491 C74.7052273,35.1158377 82.7101405,35.5098983 90.3535845,36.7098576 L93.4527384,36.0795086 C110.957329,32.510741 111.588418,32.5337032 127.295292,37.3298365 L131.848471,38.7127525 C133.21435,39.1260718 134.112838,40.432694 134.006175,41.8526458 L129.350037,104.794211 Z" id="03_ck_bildmarke_weiss_schutzraum" fill="#769F38"></path>
        </g>
    </g>
</svg>